<?xml version="1.0" encoding="utf-8"?>
<svg width="85" height="85" viewBox="0 0 85 85" fill="none" xmlns="http://www.w3.org/2000/svg">
  <rect width="85" height="85" rx="4.27273" style="fill: rgb(149, 215, 209);"/>
  <path d="M70.8998 56.0485L63.9027 52.6228C66.7393 48.8166 67.6849 44.4393 67.6849 40.8234V39.3008C67.6849 30.7367 63.3353 19.3179 42.1549 19.3179H39.6965C18.7052 19.3179 14.1665 30.7367 14.1665 39.1105V40.633C14.1665 48.8166 18.5161 60.616 39.6965 60.616H42.1549C46.1262 60.616 49.5302 60.2354 52.556 59.4741L65.7938 66.3254L70.8998 56.0485ZM41.0203 49.7681C30.9974 49.7681 29.2954 44.0587 29.2954 40.2524V39.6815C29.2954 35.8752 30.9974 30.3561 41.0203 30.3561C51.0431 30.3561 52.7451 35.8752 52.7451 39.6815V40.2524C52.556 44.0587 50.854 49.7681 41.0203 49.7681Z" style="fill: rgb(31, 31, 31);"/>
</svg>